<svg width="312" height="51" viewBox="0 0 312 51" fill="none" xmlns="http://www.w3.org/2000/svg">
<path d="M77.8361 41.8757C74.4721 41.8757 71.6687 41.431 69.4261 40.5417C67.1834 39.6137 65.4627 38.357 64.2641 36.7717C63.1041 35.1864 62.4467 33.3884 62.2921 31.3777L72.3841 31.0297C72.6161 32.4217 73.1767 33.4657 74.0661 34.1617C74.9554 34.8577 76.2314 35.2057 77.8941 35.2057C79.2474 35.2057 80.2914 34.993 81.0261 34.5677C81.7607 34.1037 82.1281 33.427 82.1281 32.5377C82.1281 31.919 81.9734 31.4164 81.6641 31.0297C81.3934 30.643 80.8327 30.295 79.9821 29.9857C79.1701 29.6764 77.9521 29.3864 76.3281 29.1157C72.9254 28.5744 70.2574 27.917 68.3241 27.1437C66.3907 26.3317 65.0181 25.307 64.2061 24.0697C63.4327 22.8324 63.0461 21.2857 63.0461 19.4297C63.0461 16.375 64.2447 13.9197 66.6421 12.0637C69.0781 10.2077 72.7514 9.27969 77.6621 9.27969C80.7167 9.27969 83.2687 9.74369 85.3181 10.6717C87.4061 11.5997 89.0107 12.895 90.1321 14.5577C91.2921 16.1817 92.0074 18.0764 92.2781 20.2417L82.3601 20.5897C82.2441 19.623 81.9734 18.7917 81.5481 18.0957C81.1227 17.3997 80.5814 16.8777 79.9241 16.5297C79.2667 16.143 78.4741 15.9497 77.5461 15.9497C76.2314 15.9497 75.1874 16.2397 74.4141 16.8197C73.6794 17.361 73.3121 18.115 73.3121 19.0817C73.3121 19.739 73.4667 20.2997 73.7761 20.7637C74.1241 21.189 74.6847 21.537 75.4581 21.8077C76.2314 22.0784 77.2754 22.3104 78.5901 22.5037C81.9541 22.929 84.6414 23.567 86.6521 24.4177C88.6627 25.2297 90.1127 26.293 91.0021 27.6077C91.9301 28.8837 92.3941 30.4497 92.3941 32.3057C92.3941 34.355 91.7947 36.095 90.5961 37.5257C89.4361 38.9564 87.7734 40.039 85.6081 40.7737C83.4427 41.5084 80.8521 41.8757 77.8361 41.8757ZM107.599 41.8757C104.351 41.8757 101.818 40.851 100.001 38.8017C98.222 36.7137 97.3327 33.8137 97.3327 30.1017V9.97568H107.309V27.7817C107.309 29.9857 107.618 31.5904 108.237 32.5957C108.894 33.601 109.919 34.1037 111.311 34.1037C112.857 34.1037 114.037 33.5624 114.849 32.4797C115.699 31.3584 116.125 29.6184 116.125 27.2597V9.97568H126.101V41.1797H117.111L116.821 31.7837L117.981 31.9577C117.594 35.283 116.531 37.777 114.791 39.4397C113.051 41.0637 110.653 41.8757 107.599 41.8757ZM133.186 41.1797V9.97568H142.118L142.524 19.5457L141.306 19.3137C141.577 16.839 142.176 14.867 143.104 13.3977C144.071 11.9284 145.27 10.8844 146.7 10.2657C148.131 9.60835 149.716 9.27969 151.456 9.27969C153.66 9.27969 155.555 9.76302 157.14 10.7297C158.764 11.6577 160.002 13.011 160.852 14.7897C161.703 16.5297 162.128 18.637 162.128 21.1117V41.1797H152.152V24.5337C152.152 22.9484 152.036 21.595 151.804 20.4737C151.572 19.3524 151.147 18.5017 150.528 17.9217C149.948 17.3417 149.098 17.0517 147.976 17.0517C146.352 17.0517 145.134 17.709 144.322 19.0237C143.549 20.2997 143.162 22.1364 143.162 24.5337V41.1797H133.186ZM168.417 49.8797V9.97568H178.103L178.277 16.5297L177.523 16.2397C178.296 13.997 179.533 12.2764 181.235 11.0777C182.975 9.87902 185.024 9.27969 187.383 9.27969C190.205 9.27969 192.583 9.99502 194.517 11.4257C196.45 12.8177 197.919 14.751 198.925 17.2257C199.93 19.6617 200.433 22.4457 200.433 25.5777C200.433 28.671 199.911 31.455 198.867 33.9297C197.861 36.4044 196.373 38.357 194.401 39.7877C192.467 41.1797 190.089 41.8757 187.267 41.8757C185.759 41.8757 184.347 41.605 183.033 41.0637C181.757 40.4837 180.635 39.691 179.669 38.6857C178.741 37.6417 178.064 36.4237 177.639 35.0317L178.393 34.6837V49.8797H168.417ZM184.251 34.5097C186.068 34.5097 187.499 33.717 188.543 32.1317C189.625 30.5077 190.167 28.323 190.167 25.5777C190.167 22.8324 189.625 20.667 188.543 19.0817C187.499 17.4577 186.068 16.6457 184.251 16.6457C183.013 16.6457 181.95 16.9937 181.061 17.6897C180.21 18.347 179.553 19.333 179.089 20.6477C178.625 21.9624 178.393 23.6057 178.393 25.5777C178.393 27.5497 178.625 29.193 179.089 30.5077C179.553 31.8224 180.21 32.8277 181.061 33.5237C181.95 34.181 183.013 34.5097 184.251 34.5097ZM220.077 41.8757C216.829 41.8757 213.987 41.199 211.551 39.8457C209.115 38.4924 207.22 36.5977 205.867 34.1617C204.514 31.7257 203.837 28.8644 203.837 25.5777C203.837 22.291 204.514 19.449 205.867 17.0517C207.22 14.6157 209.096 12.721 211.493 11.3677C213.929 9.97569 216.771 9.27969 220.019 9.27969C223.267 9.27969 226.07 9.97569 228.429 11.3677C230.826 12.721 232.663 14.6737 233.939 17.2257C235.215 19.7777 235.853 22.813 235.853 26.3317V28.1877H214.161C214.277 30.353 214.876 31.977 215.959 33.0597C217.08 34.1037 218.511 34.6257 220.251 34.6257C221.566 34.6257 222.668 34.3744 223.557 33.8717C224.446 33.3304 225.084 32.4604 225.471 31.2617L235.447 31.8417C234.596 35.0897 232.798 37.5837 230.053 39.3237C227.308 41.025 223.982 41.8757 220.077 41.8757ZM214.161 22.5037H225.761C225.684 20.4544 225.123 18.927 224.079 17.9217C223.035 16.8777 221.682 16.3557 220.019 16.3557C218.434 16.3557 217.1 16.897 216.017 17.9797C214.973 19.0624 214.354 20.5704 214.161 22.5037ZM250.543 41.8757C247.295 41.8757 244.627 41.1217 242.539 39.6137C240.451 38.1057 239.407 36.0177 239.407 33.3497C239.407 30.6044 240.297 28.4777 242.075 26.9697C243.854 25.4617 246.445 24.3597 249.847 23.6637L259.533 21.6917C259.533 19.8744 259.127 18.5017 258.315 17.5737C257.542 16.607 256.421 16.1237 254.951 16.1237C253.482 16.1237 252.322 16.491 251.471 17.2257C250.659 17.9217 250.137 18.927 249.905 20.2417L239.929 19.8937C240.548 16.2977 242.153 13.6297 244.743 11.8897C247.334 10.1497 250.737 9.27969 254.951 9.27969C259.823 9.27969 263.458 10.3817 265.855 12.5857C268.291 14.7897 269.509 18.0764 269.509 22.4457V32.3057C269.509 33.2724 269.664 33.9104 269.973 34.2197C270.321 34.529 270.785 34.6837 271.365 34.6837H272.119V41.1797C271.81 41.2957 271.307 41.3924 270.611 41.4697C269.915 41.547 269.239 41.5857 268.581 41.5857C267.383 41.5857 266.223 41.3924 265.101 41.0057C263.98 40.5804 263.052 39.8457 262.317 38.8017C261.583 37.719 261.215 36.1724 261.215 34.1617L261.969 34.9157C261.583 36.3077 260.887 37.545 259.881 38.6277C258.915 39.6717 257.658 40.4837 256.111 41.0637C254.565 41.605 252.709 41.8757 250.543 41.8757ZM253.153 35.3797C254.391 35.3797 255.493 35.1284 256.459 34.6257C257.426 34.123 258.18 33.3884 258.721 32.4217C259.263 31.455 259.533 30.2564 259.533 28.8257V27.5497L253.501 28.9417C252.303 29.2124 251.355 29.6377 250.659 30.2177C250.002 30.759 249.673 31.4937 249.673 32.4217C249.673 33.3497 249.963 34.0844 250.543 34.6257C251.123 35.1284 251.993 35.3797 253.153 35.3797ZM275.864 41.1797V-0.000314713H285.84V21.4597L296.222 9.97568H308.054L295.932 22.6777L308.344 41.1797H297.556L289.552 28.1877L285.84 32.1317V41.1797H275.864Z" fill="white"/>
<path d="M40.7143 44.6241C36.4207 48.0985 30.9535 50.1797 25 50.1797C19.0465 50.1797 13.5793 48.0985 9.28567 44.6241H40.7143ZM48.5774 33.513C47.8783 35.491 46.9369 37.3546 45.7896 39.0686H4.21043C3.0631 37.3546 2.12178 35.491 1.42264 33.513H48.5774ZM49.8474 22.4019C49.9481 23.314 50 24.2408 50 25.1797C50 26.1186 49.9481 27.0454 49.8474 27.9575H0.152633C0.0518119 27.0454 0 26.1186 0 25.1797C0 24.2408 0.051812 23.314 0.152633 22.4019H49.8474ZM45.7896 11.2908C46.9369 13.0047 47.8783 14.8683 48.5774 16.8464H1.42264C2.12178 14.8683 3.0631 13.0047 4.21043 11.2908H45.7896ZM25 0.179688C30.9535 0.179688 36.4207 2.26093 40.7143 5.73524H9.28567C13.5793 2.26093 19.0465 0.179688 25 0.179688Z" fill="#FFB800"/>
</svg>
